<svg id="Layer_1" data-name="Layer 1" xmlns="http://www.w3.org/2000/svg" viewBox="0 0 476.39 135.59"><defs><style>.cls-1{fill:#37b34a;}.cls-2{fill:#00793a;}.cls-3{fill:#ec1c24;}</style></defs><title>NGI Logo</title><path class="cls-1" d="M327.92,418.11h-6.57l-.78,22-12.35-22h-3.57a3.75,3.75,0,0,0-2.43,1.06,3.36,3.36,0,0,0-1.07,2.37l-1,28.56h6.57l.78-22,12.44,22h6.85Z" transform="translate(-59.87 -392.41)"/><path class="cls-1" d="M349.34,446.06a10.79,10.79,0,0,0,1.57-5.79l.3-8.44a5.69,5.69,0,0,0-2.54-5.19c-1.71-1.18-4.31-1.76-7.81-1.76q-4.69,0-7.3,2.13a7.41,7.41,0,0,0-2.8,4.73h6.29a2.62,2.62,0,0,1,1.55-1.39A6.92,6.92,0,0,1,341,430a9.47,9.47,0,0,1,2.65.41A1.68,1.68,0,0,1,345,432.2q-.06,1.86-4.21,2.41c-.56.06-1.07.14-1.51.23a5.16,5.16,0,0,1-1.13.14,13.69,13.69,0,0,0-5.94,2.23q-2.35,1.67-2.5,5.56c-.1,2.78.68,4.78,2.32,6a9.62,9.62,0,0,0,5.85,1.81c1.13,0,2.43-.08,3.9-.23a12.09,12.09,0,0,0,4.22-1.25A8.73,8.73,0,0,0,349.34,446.06ZM344.82,440a5.69,5.69,0,0,1-1.64,4.08,5.8,5.8,0,0,1-4.18,1.48,3.47,3.47,0,0,1-2.42-.74,2.86,2.86,0,0,1-.76-2.22,3.76,3.76,0,0,1,.73-2,5.67,5.67,0,0,1,2.48-1.21l2.17-.46a18.38,18.38,0,0,0,3.7-1.21Z" transform="translate(-59.87 -392.41)"/><path class="cls-1" d="M370.37,449.77a8.2,8.2,0,0,0,3.89-2.55,15.22,15.22,0,0,0,3.14-9.36,14.39,14.39,0,0,0-2.48-9.37,8.42,8.42,0,0,0-7.1-3.61,8.78,8.78,0,0,0-4.16.92,8.22,8.22,0,0,0-3.1,2.88l.26-7.42A2.9,2.9,0,0,0,360,419a3,3,0,0,0-2.21-.92h-3.19l-.76,21.23q-.23,6.59,3.53,8.9a15.44,15.44,0,0,0,8.27,2.32A15.28,15.28,0,0,0,370.37,449.77Zm-9-6.53q-1.26-1.77-1.12-5.66a9.15,9.15,0,0,1,1.6-5.29,5,5,0,0,1,4.1-1.85,4.34,4.34,0,0,1,3.78,1.95,8.21,8.21,0,0,1,1.22,5.19,9.84,9.84,0,0,1-1.61,5.66,4.86,4.86,0,0,1-4.1,1.94A4.41,4.41,0,0,1,361.36,443.24Z" transform="translate(-59.87 -392.41)"/><path class="cls-1" d="M388.16,421.35a2.91,2.91,0,0,0-.85-2.22,3,3,0,0,0-2.22-.93h-3.38l-.18,5.1h6.57Z" transform="translate(-59.87 -392.41)"/><path class="cls-1" d="M387.91,428.58a2.93,2.93,0,0,0-.86-2.22,3,3,0,0,0-2.22-.93h-3.38l-.87,24.67h6.56Z" transform="translate(-59.87 -392.41)"/><path class="cls-1" d="M398.18,421.26a2.75,2.75,0,0,0-.86-2.18,3,3,0,0,0-2.22-.88h-3.38l-1.13,31.9h6.57Z" transform="translate(-59.87 -392.41)"/><path class="cls-1" d="M437.21,447.5a3,3,0,0,0,3.19,2.6h1.79l.61-17.34H429.39l-.08,2.13a3.09,3.09,0,0,0,.9,2.36,3.18,3.18,0,0,0,2.36,1h3.94a9,9,0,0,1-2.81,5.1,8.08,8.08,0,0,1-5.31,1.76,7.8,7.8,0,0,1-6.56-2.88q-2.34-3-2.15-8.16a13.46,13.46,0,0,1,2.63-8.15,8.08,8.08,0,0,1,6.48-2.88,8.33,8.33,0,0,1,4.93,1.3,6.83,6.83,0,0,1,1.8,2,3,3,0,0,0,2.85,1.76h4.5a11.65,11.65,0,0,0-4.31-8,16,16,0,0,0-9.84-2.88,14.89,14.89,0,0,0-11.33,4.64q-4.2,4.45-4.47,12.14t3.7,12.24q3.87,4.54,10.81,4.55a14,14,0,0,0,5.38-1,10.85,10.85,0,0,0,4.16-3.53Z" transform="translate(-59.87 -392.41)"/><path class="cls-1" d="M459.52,425.43a19,19,0,0,0-4.94.65,12.14,12.14,0,0,0-4.16,2l.09-2.52H449.2a2.84,2.84,0,0,0-2.88,2.74l-.31,8.88h0c0,.33-.06.64-.07,1l-.43,12h6.57l.45-12.71a4.85,4.85,0,0,1,5.54-5.37h2.16l.23-6.59h-.94Z" transform="translate(-59.87 -392.41)"/><path class="cls-1" d="M465.34,447.87a10.59,10.59,0,0,0,4.93,2.37,13.09,13.09,0,0,0,6.25-.14,9.89,9.89,0,0,0,5.86-3.81,13.53,13.53,0,0,0,1.81-3.61,17.63,17.63,0,0,0,.84-5.1,14.89,14.89,0,0,0-1.34-7.14,9,9,0,0,0-5.08-4.82,14.67,14.67,0,0,0-6.93-.61,10.18,10.18,0,0,0-6.4,3.3,10.74,10.74,0,0,0-2.35,4.17,18.72,18.72,0,0,0-.88,5,20.42,20.42,0,0,0,.63,5.88A8.78,8.78,0,0,0,465.34,447.87Zm3.07-10q0-4.22,2-6.35a5,5,0,0,1,2.1-1.06,4.6,4.6,0,0,1,2.82,0,4.66,4.66,0,0,1,2.41,2.13,9.26,9.26,0,0,1,.9,5,10.63,10.63,0,0,1-1.41,5.38,5.07,5.07,0,0,1-2.66,2.09,4.58,4.58,0,0,1-2.86-.1,4,4,0,0,1-1.92-1.25Q468.45,442.13,468.41,437.9Z" transform="translate(-59.87 -392.41)"/><path class="cls-1" d="M490.93,448.33a14.73,14.73,0,0,0,7.29,2.23,15.11,15.11,0,0,0,7.67-2q3.54-2,3.78-8.62l.51-14.47H506.9a3.17,3.17,0,0,0-2.34.93,3.24,3.24,0,0,0-1,2.22l-.44,12.61a4,4,0,0,1-1.48,3.25,5.11,5.11,0,0,1-3.08,1,4.62,4.62,0,0,1-3-1,3.74,3.74,0,0,1-1.2-3.25l.56-15.76h-6.57l-.51,14.47C487.75,444.16,488.76,447,490.93,448.33Z" transform="translate(-59.87 -392.41)"/><path class="cls-1" d="M511.93,459.18h3.19a3.32,3.32,0,0,0,3.31-3.15l.32-9.18a6.72,6.72,0,0,0,2.9,2.88,9.52,9.52,0,0,0,4.1.83A9.18,9.18,0,0,0,533.1,447a15.46,15.46,0,0,0,3.15-9.46,14.28,14.28,0,0,0-2.49-9.27,8.28,8.28,0,0,0-3.71-2.55,13.29,13.29,0,0,0-4.7-.88,16,16,0,0,0-8.19,2.22l.05-1.56h-1.3a2.84,2.84,0,0,0-2.88,2.74l-.31,8.88h0Zm7.14-21.32c.09-2.54.59-4.39,1.51-5.57a4.75,4.75,0,0,1,4-1.94,4.48,4.48,0,0,1,4,1.94,11.19,11.19,0,0,1-.38,10.85,4.67,4.67,0,0,1-3.92,1.95,4.49,4.49,0,0,1-4-1.95C519.39,442,519,440.21,519.07,437.86Z" transform="translate(-59.87 -392.41)"/><path class="cls-1" d="M486.44,459.5H483.3l-.17,4.75h6.11l.07-1.81a2.73,2.73,0,0,0-.8-2.08A2.79,2.79,0,0,0,486.44,459.5Z" transform="translate(-59.87 -392.41)"/><path class="cls-1" d="M313.94,467.41a13.48,13.48,0,0,0-6.45-.56,9.51,9.51,0,0,0-6,3.06,10.2,10.2,0,0,0-2.2,3.89,17.77,17.77,0,0,0-.82,4.67,18.79,18.79,0,0,0,.6,5.48,8.1,8.1,0,0,0,2.47,4.19,9.76,9.76,0,0,0,4.6,2.2,12,12,0,0,0,5.81-.13,9.18,9.18,0,0,0,5.46-3.54,12.79,12.79,0,0,0,1.69-3.37,16.76,16.76,0,0,0,.78-4.75,13.94,13.94,0,0,0-1.25-6.65A8.41,8.41,0,0,0,313.94,467.41Zm0,11.23a10,10,0,0,1-1.32,5,4.68,4.68,0,0,1-2.47,1.94,4.24,4.24,0,0,1-2.66-.08,3.8,3.8,0,0,1-1.8-1.17c-.83-1-1.26-2.86-1.29-5.49s.6-4.59,1.87-5.91a4.83,4.83,0,0,1,2-1,4.08,4.08,0,0,1,4.87,2A8.61,8.61,0,0,1,314,478.64Z" transform="translate(-59.87 -392.41)"/><path class="cls-1" d="M330.13,460.84c-2.39,0-4.12.49-5.21,1.47A6.28,6.28,0,0,0,323.1,467l-.84,23.67h5.94l.62-17.36h.87a2.94,2.94,0,0,0,2-.83,2.86,2.86,0,0,0,.95-2.11l0-1.3H329l0-1.55a1.78,1.78,0,0,1,.49-1.38,3.34,3.34,0,0,1,1.76-.35h1.57L333,461a9.27,9.27,0,0,0-1.48-.09A10.26,10.26,0,0,0,330.13,460.84Z" transform="translate(-59.87 -392.41)"/><path class="cls-1" d="M348,461.83a3.11,3.11,0,0,0-1,2.2l-1,26.61h6.21l1-29.72h-3A3.21,3.21,0,0,0,348,461.83Z" transform="translate(-59.87 -392.41)"/><path class="cls-1" d="M373.88,469.13a12.94,12.94,0,0,0-7-2,14.18,14.18,0,0,0-5.47,1.36l.08-1.64h-1.4a2.93,2.93,0,0,0-3.13,2.55l-.34,7c0,.25,0,.5-.05.76l-.48,13.48h6.11l.53-14.69a3.68,3.68,0,0,1,1.33-3,4.6,4.6,0,0,1,2.83-.95,4.47,4.47,0,0,1,2.8.95,3.41,3.41,0,0,1,1.16,3l-.41,11.75a2.79,2.79,0,0,0,.75,2.12,2.86,2.86,0,0,0,2.11.82h3.06l.48-13.48C377,473.13,376,470.46,373.88,469.13Z" transform="translate(-59.87 -392.41)"/><path class="cls-1" d="M399.41,460.41h-3l-.35,9.84a7.84,7.84,0,0,0-2.7-2.67,8,8,0,0,0-3.82-.87,8.46,8.46,0,0,0-6.84,3.37,14.32,14.32,0,0,0-2.85,8.72q-.19,5.54,2.23,8.73a7,7,0,0,0,3.41,2.37,13.64,13.64,0,0,0,4.43.74,15.17,15.17,0,0,0,7.85-2.16q3.66-2.16,3.88-8.29l.6-16.85a2.81,2.81,0,0,0-.8-2A2.73,2.73,0,0,0,399.41,460.41Zm-3.61,18.14a9.79,9.79,0,0,1-1.41,5.26,4.46,4.46,0,0,1-3.74,1.82,4.19,4.19,0,0,1-3.69-1.82,8.71,8.71,0,0,1-1.13-5.26,8.08,8.08,0,0,1,1.49-4.84,4.34,4.34,0,0,1,3.64-1.82,4.42,4.42,0,0,1,3.7,1.73A8.09,8.09,0,0,1,395.8,478.55Z" transform="translate(-59.87 -392.41)"/><path class="cls-1" d="M420.92,468.09a3,3,0,0,0-.9,2.08l-.42,11.74a3.7,3.7,0,0,1-1.37,3,4.81,4.81,0,0,1-2.88.95,4.3,4.3,0,0,1-2.76-.95,3.46,3.46,0,0,1-1.12-3l.52-14.68h-6.11l-.48,13.47q-.21,6,2.82,7.87a13.88,13.88,0,0,0,6.79,2.07,14,14,0,0,0,7.14-1.9c2.2-1.27,3.38-3.95,3.52-8l.48-13.47h-3.06A3,3,0,0,0,420.92,468.09Z" transform="translate(-59.87 -392.41)"/><path class="cls-1" d="M441.72,476.13A3.32,3.32,0,0,1,441,476a9,9,0,0,1-.91-.26c-3-.63-4.49-1.41-4.46-2.33a1.81,1.81,0,0,1,.84-1.56,5.46,5.46,0,0,1,2.64-.51,4.63,4.63,0,0,1,2.86.77l.67.69a2.68,2.68,0,0,0,2.48,1.47h3.76a7.25,7.25,0,0,0-2.51-5.61,11.64,11.64,0,0,0-7.18-2,11.27,11.27,0,0,0-6.89,2,7.13,7.13,0,0,0-2.73,5.44,5.11,5.11,0,0,0,1.61,4.15c1,1,3,1.93,6.1,2.67a15.16,15.16,0,0,0,2.35.52q3.64.78,3.58,2.33a1.89,1.89,0,0,1-1.1,1.64,5.73,5.73,0,0,1-2.73.61,6.19,6.19,0,0,1-3.47-.86,3.08,3.08,0,0,1-1.22-2.6h-5.94v.26a6.67,6.67,0,0,0,2.33,5.79c1.58,1.33,4,2,7.36,2,3.49,0,6.14-.63,7.93-1.9a7.17,7.17,0,0,0,3-5.88,5.23,5.23,0,0,0-1.52-4.14Q446.14,477.25,441.72,476.13Z" transform="translate(-59.87 -392.41)"/><path class="cls-1" d="M459.52,463.79a2.75,2.75,0,0,0-.8-2.07,2.7,2.7,0,0,0-2-.87h-3.15l-.9,25.4c-.1,2.65,1,4.06,3.21,4.23a45.6,45.6,0,0,0,6.25.09l.16-4.49h-1.84c-1.16,0-1.73-.49-1.69-1.47l.45-12.79h.61A3,3,0,0,0,462,471a2.86,2.86,0,0,0,.95-2.11l0-1.21h-3.58Z" transform="translate(-59.87 -392.41)"/><path class="cls-1" d="M478.41,467.66a17.42,17.42,0,0,0-4.61.61,11.32,11.32,0,0,0-3.88,1.84l.09-2.53H468.8a2.63,2.63,0,0,0-2.68,2.55l-.3,8.28h0c0,.36-.07.71-.08,1.08l-.4,11.15h6.12l.42-11.84a4.52,4.52,0,0,1,5.16-5h2l.21-6.13h-.87Z" transform="translate(-59.87 -392.41)"/><path class="cls-1" d="M486.25,467.66h-3.14l-.82,23h6.12l.71-20a2.73,2.73,0,0,0-.8-2.08A2.79,2.79,0,0,0,486.25,467.66Z" transform="translate(-59.87 -392.41)"/><path class="cls-1" d="M503.06,466.71a10.15,10.15,0,0,0-7.9,3.2q-2.82,3.1-3,8.64c-.14,3.85.69,6.82,2.48,8.89a9.45,9.45,0,0,0,7.66,3.2,11.5,11.5,0,0,0,6.89-2,9.88,9.88,0,0,0,3.87-5.53h-4.37a2.66,2.66,0,0,0-1.63.44,1.83,1.83,0,0,0-.68.69l-.5.47a1.17,1.17,0,0,1-.49.3,5.08,5.08,0,0,1-2.56.61,4,4,0,0,1-3.36-1.38,5.8,5.8,0,0,1-1.17-4h15.12a1.47,1.47,0,0,0,.11-.6c0-.06,0-.17,0-.35s0-.37,0-.6q.21-5.7-2.48-8.9T503.06,466.71Zm-4.63,9.68a5.13,5.13,0,0,1,1.43-3.46,4.43,4.43,0,0,1,3.19-1.21,4.07,4.07,0,0,1,3.19,1.21,5.34,5.34,0,0,1,1.1,3.46Z" transform="translate(-59.87 -392.41)"/><path class="cls-1" d="M534.74,478.72c-1.13-1-3.16-1.84-6.11-2.59a3.32,3.32,0,0,1-.74-.09,9,9,0,0,1-.91-.26q-4.5-.94-4.46-2.33a1.85,1.85,0,0,1,.84-1.56,5.46,5.46,0,0,1,2.64-.51,4.61,4.61,0,0,1,2.86.77l.67.69a2.68,2.68,0,0,0,2.49,1.47h3.75a7.25,7.25,0,0,0-2.51-5.61,11.64,11.64,0,0,0-7.18-2,11.27,11.27,0,0,0-6.89,2,7.08,7.08,0,0,0-2.72,5.44,5.1,5.1,0,0,0,1.6,4.15c1,1,3,1.93,6.11,2.67a15.26,15.26,0,0,0,2.34.52c2.43.52,3.62,1.3,3.59,2.33a1.92,1.92,0,0,1-1.11,1.64,5.73,5.73,0,0,1-2.73.61,6.19,6.19,0,0,1-3.47-.86,3.08,3.08,0,0,1-1.22-2.6h-5.94v.26a6.67,6.67,0,0,0,2.33,5.79q2.38,2,7.36,2,5.25,0,7.93-1.9a7.17,7.17,0,0,0,3-5.88A5.23,5.23,0,0,0,534.74,478.72Z" transform="translate(-59.87 -392.41)"/><path class="cls-2" d="M148.18,436.62a39,39,0,0,0-.87-7.54,17.79,17.79,0,0,0-3.13-6.83,20.44,20.44,0,0,0-5.74-5.29,27.58,27.58,0,0,0-8.47-3.29,47.62,47.62,0,0,0-17.62-.6,41.4,41.4,0,0,0-6.4,1.54,28.12,28.12,0,0,0-5.49,2.49,25.7,25.7,0,0,0-4.32,3.14,52.79,52.79,0,0,0-4,4.21c.2-3.77.45-5.32.74-9.54h-.21c-1,0-2.15,0-3.22,0-2.17,0-4.14.06-5.89.08l-5.15,0c-2.81,0-6,0-9.52-.07l-4.11-.05-1.58,0h0c0,3.81,0,5,0,8.44-.1,9.62-.38,20-.75,29.87q-.77,20.47-2.58,37.42h.78q7.44-.12,12.73-.15h2.41q7,0,14.31.15v0l1.37,0q-.14-7.8-.21-29.54V459a49.29,49.29,0,0,1,2.13-11.4,17.45,17.45,0,0,1,5.69-8.24,13,13,0,0,1,8-2.84,10.9,10.9,0,0,1,8.1,3.32q3.25,3.33,3.4,11.75.11,5.46-.4,18.84t-1.06,20.19q7.18-.15,15.92-.15,6.45,0,13.86.15-.12-6.79.11-14.78l.79-27Q148.22,439.46,148.18,436.62Z" transform="translate(-59.87 -392.41)"/><path class="cls-2" d="M255.74,490.64q.84-8.77,1.25-14.45t.7-14.51q.31-8.83.48-19.55t.13-24.86c6.25.1,11.28.38,15,.38,3.41,0,8.29-.28,14.68-.38q-1,13.58-1.36,23.86t-.3,21.77q.07,20.42.21,27.74-8.58-.15-14.77-.15T255.74,490.64Z" transform="translate(-59.87 -392.41)"/><path class="cls-3" d="M258.12,409c6,.11,10.87.41,14.49.41,3.26,0,8.82-.29,14.81-.4.24-5.1,0-10.94.59-16.59-6.3.11-11.69.41-15.05.41-3.7,0-8.66-.3-14.82-.41C258.16,398.38,258.15,403.87,258.12,409Z" transform="translate(-59.87 -392.41)"/><path class="cls-2" d="M223.28,413.3q-8.1-.78-14.47-.78a77.49,77.49,0,0,0-19.87,2.32,41.21,41.21,0,0,0-16,8.4,39.66,39.66,0,0,0-11.05,14.85,46.86,46.86,0,0,0-3.61,19.65,41.12,41.12,0,0,0,4,17.18,28,28,0,0,0,11.36,12.37,32.7,32.7,0,0,0,16.85,4.43,36.19,36.19,0,0,0,7.65-.79,30.68,30.68,0,0,0,6.66-2.25q1.47-.71,2.7-1.44l.68-.36.7-19.85-1.71,1.34a12.58,12.58,0,0,1-7.19,2.2,12.86,12.86,0,0,1-6.83-2,11.41,11.41,0,0,1-4.7-5.44,20.38,20.38,0,0,1-1.52-7.52,23,23,0,0,1,2.45-10.71,17.25,17.25,0,0,1,7.28-7.74,23.23,23.23,0,0,1,11.32-2.59,42.41,42.41,0,0,1,8.13.9q0,7-.36,12.22s-1,33.77-1,33.75c-.05,2.31-.12,4.3-.2,6a8.69,8.69,0,0,1-.06.91c0,.65-.06,1.25-.1,1.8a27.86,27.86,0,0,1-.93,5.55,14.94,14.94,0,0,1-2,4.35,12.14,12.14,0,0,1-3.2,3.23,19.06,19.06,0,0,1-9,2.76,54.49,54.49,0,0,1-10.91-.1c-6.59-.69-13.6-2-19.54-5l-10.48,17.24,5.41,2.2c1,.45,1.93.85,2.92,1.22l.47.16.22.1v0A102.66,102.66,0,0,0,200,528a86.69,86.69,0,0,0,19.68-1.8,38.75,38.75,0,0,0,12-4.29,22.65,22.65,0,0,0,10.36-15.25,46.52,46.52,0,0,0,.94-8.85l.15-24.37q0-1.87.06-4.8l1-27.15,1.3-24.75Q231.39,414.1,223.28,413.3Z" transform="translate(-59.87 -392.41)"/></svg>